<?xml version="1.0" standalone="no"?><!DOCTYPE svg PUBLIC "-//W3C//DTD SVG 1.1//EN" "http://www.w3.org/Graphics/SVG/1.1/DTD/svg11.dtd"><svg t="1533615613836" class="icon" style="" viewBox="0 0 3370 1024" version="1.1" xmlns="http://www.w3.org/2000/svg" p-id="1491" data-spm-anchor-id="a313x.7781069.0.i0" xmlns:xlink="http://www.w3.org/1999/xlink" width="658.203125" height="200"><defs><style type="text/css"></style></defs><path d="M0 796.16s627.136-123.776 1002.624 215.68l191.744 7.936c0 0.064-431.36-459.264-1194.368-223.616" fill="#DDD" p-id="1492"></path><path d="M1227.328 811.456v-35.008h84.16l-74.048-79.744h53.696l-66.688-79.808h40.576l-56.512-70.976-20.288 29.504-165.504-178.816h121.344l-165.632-200.704h104.96L938.752 0l-137.728 193.6h93.44L740.48 396.608h116.672l-145.92 139.84-43.072-46.528h86.272L647.168 361.6h65.28L621.44 247.232l-81.6 119.04h62.976L495.488 494.592h81.728L451.2 625.152l160.896-4.608v32.704c-113.984 1.792-240.768 18.112-380.352 55.04 0 0 643.136-103.744 990.592 239.744l171.84-4.032c-0.128 0-55.296-64.448-166.848-132.544m-24.64-14.784a1021.632 1021.632 0 0 0-32.768-17.856l32.768-0.96v18.816z m-40.64-183.232l-4.352 6.464h39.232l-66.816 79.68h50.816l-55.232 57.408a1061.44 1061.44 0 0 0-137.984-52.864V613.44h174.336z m-374.912 4.672l-2.176-2.304h121.216l6.912 67.648 0.448 0.832a1220.736 1220.736 0 0 0-261.696-31.168v-35.008h135.296z" fill="#DDD" p-id="1493"></path><path d="M1409.6 262.336V194.368h199.872l-15.552-65.984 83.392-3.84c1.344 7.744 3.968 19.392 7.808 34.88 2.688 15.552 4.544 27.2 5.888 34.944h182.4v67.968H1799.68c-19.456 73.792-53.056 135.872-100.864 186.368 46.528 29.76 105.984 51.776 178.496 65.984a1898.24 1898.24 0 0 1-29.12 44.672 160.32 160.32 0 0 0-15.488 23.296c-76.352-22.016-140.416-50.496-192.128-85.376-41.408 29.76-104.832 60.16-190.4 91.136a456.512 456.512 0 0 0-44.48-65.984c73.728-21.952 133.248-47.168 178.496-75.648-46.464-49.152-80.192-110.656-100.992-184.384h-73.6z m230.976 137.856a282.112 282.112 0 0 0 79.552-137.856H1560.96c15.552 54.336 42.048 100.352 79.616 137.856zM1912.256 273.984V209.92h62.144V124.544h69.952V209.92h58.112v64.064h-58.112v33.024c24.576 16.896 48.512 34.304 71.872 52.416l-35.008 60.16a311.296 311.296 0 0 0-34.944-33.024c1.216 1.344 0.64 0.704-1.92-1.856v203.712H1974.4V396.224a510.016 510.016 0 0 1-60.096 95.104 214.144 214.144 0 0 1-3.968-27.136c-3.968-33.664-7.04-57.536-9.664-71.808a424.576 424.576 0 0 0 69.824-118.464h-58.24z m205.888 314.368a851.648 851.648 0 0 0-38.848-58.176A665.664 665.664 0 0 0 2329.6 367.168l48.704 48.512a702.656 702.656 0 0 1-260.16 172.672z m29.056-147.392a16.768 16.768 0 0 0-1.92-5.888c-15.616-25.856-28.608-44.608-38.848-56.256a738.624 738.624 0 0 0 203.904-135.872l50.368 50.496c-59.456 54.336-130.752 103.488-213.504 147.52z m1.984-141.76a1120.768 1120.768 0 0 0-38.848-60.16 1040.256 1040.256 0 0 0 182.4-116.48l46.656 50.496a1181.888 1181.888 0 0 1-190.208 126.144zM2414.976 213.824a447.936 447.936 0 0 0-9.6-64 2288.64 2288.64 0 0 0 182.4-13.632l11.776 62.144c-5.248 0-12.48 0.64-21.44 1.856a907.52 907.52 0 0 0-42.624 3.904v54.336h56.256v65.984h-56.256v50.496l17.344-19.456c20.736 14.272 41.408 29.76 62.08 46.592l-23.168 25.28 153.28-13.568V126.528h69.952v281.408l54.4-5.888 1.792 67.968-56.192 5.824v110.656H2744.96V481.664l-155.264 13.632-5.888-58.24-11.584 13.568c-6.528-6.4-18.752-17.472-36.8-33.024v168.896h-68.032V427.328a435.2 435.2 0 0 1-48.64 87.36l-19.328-79.616c28.352-37.44 48.512-74.368 60.096-110.656h-56.192V258.432h64V209.92a124.16 124.16 0 0 1-27.136 1.984 213.76 213.76 0 0 1-25.216 1.92z m265.92 186.368a643.712 643.712 0 0 0-87.232-69.952l42.624-46.592c25.92 18.176 55.616 40.128 89.344 65.984l-44.736 50.56z m19.52-120.32c-27.264-23.36-31.168-26.56-11.776-9.728a4554.24 4554.24 0 0 0-75.776-64.064l40.832-44.672a5068.8 5068.8 0 0 1 91.2 69.952l-44.48 48.512zM2902.272 268.16V204.096h48.576V124.544h65.984v79.552h38.848V268.16h-38.848v65.984l42.624-7.744v69.824l-42.624 7.808v120.32c0 37.504-17.6 57.024-52.416 58.24-15.552 1.28-33.024 1.92-52.416 1.92a259.84 259.84 0 0 0-11.648-62.144h31.04c12.8 0 19.456-7.104 19.456-21.312V419.584l-50.496 9.728-3.968-75.776a441.6 441.6 0 0 0 54.464-7.744V268.16h-48.576z m164.928-15.552v-64h104.896V124.544h69.888v64.064h118.4v64h-118.4v48.512h102.912v64.064c-20.736 47.936-47.936 86.72-81.6 116.416a401.088 401.088 0 0 0 106.816 40.768 789.76 789.76 0 0 1-11.776 21.376c-10.24 18.048-17.344 32.32-21.248 42.688-51.84-19.392-95.104-39.552-130.048-60.16-38.848 22.016-85.44 43.328-139.84 64.064a1118.528 1118.528 0 0 0-36.8-60.16c47.808-14.208 87.872-30.4 120.384-48.512a530.688 530.688 0 0 1-73.792-100.928l36.928-17.472h-42.816v-62.08h100.992v-48.576h-104.896z m203.84 110.656h-130.048c19.456 31.04 41.344 57.664 65.984 79.616a267.776 267.776 0 0 0 64.064-79.616z" fill="#DDD" p-id="1494"></path><path d="M1814.4 700.992l-97.152 239.168h-63.424l-52.224-164.16-52.288 164.16h-63.424l-98.944-239.168h67.2l63.488 175.04 54.144-175.04h59.776l52.224 175.04 65.344-175.04h65.28zM1846.144 855.744v-153.216h63.488v148.48c-1.28 42.688 23.552 63.552 74.624 62.528h61.632v-211.008h65.344v243.904h-151.232c-78.4 1.024-116.352-29.248-113.856-90.688zM2165.376 941.76V696.32h147.52c79.616-1.024 118.784 29.696 117.632 92.16v153.28h-63.488v-146.944c0-41.664-23.68-62.592-70.912-62.592h-65.344v209.472h-65.408zM2477.184 901.056v-42.176c38.592 37.504 82.112 56.256 130.688 56.256 44.8 0 66.56-11.456 65.344-34.368 2.496-20.8-19.328-34.368-65.344-40.64-82.112-11.456-123.2-36.992-123.2-76.608 4.928-42.688 43.52-65.088 115.712-67.2 69.696 1.088 111.424 25.024 125.12 71.872h-59.776c-4.992-23.936-25.536-35.968-61.632-35.968-37.312 0-56 10.432-56 31.232-2.496 20.864 22.464 33.856 74.688 39.104 74.624 10.432 113.28 35.968 115.776 76.544 1.216 45.888-41.728 68.8-128.832 68.8-52.288 0.128-96.448-15.616-132.544-46.848zM2785.216 855.744v-153.216h63.552v148.48c-1.344 42.688 23.552 63.552 74.624 62.528h61.632v-211.008h65.344v243.904H2899.2c-78.528 1.024-116.544-29.248-113.984-90.688zM3104.448 941.76V696.32h147.52c79.68-1.024 118.848 29.696 117.632 92.16v153.28h-63.424v-146.944c0-41.664-23.68-62.592-70.976-62.592h-65.344v209.472h-65.408z" fill="#DDD" p-id="1495"></path></svg>